<svg xmlns="http://www.w3.org/2000/svg" version="1.1" xmlns:xlink="http://www.w3.org/1999/xlink" xmlns:svgjs="http://svgjs.dev/svgjs" width="1000" height="623" viewBox="0 0 1000 623"><g transform="matrix(1,0,0,1,-0.6060606060606233,0.2522267206477409)"><svg viewBox="0 0 396 247" data-background-color="#ffffff" preserveAspectRatio="xMidYMid meet" height="623" width="1000" xmlns="http://www.w3.org/2000/svg" xmlns:xlink="http://www.w3.org/1999/xlink"><defs></defs><g id="tight-bounds" transform="matrix(1,0,0,1,0.2400000000000091,-0.09999999999999432)"><svg viewBox="0 0 395.52 247.2" height="247.2" width="395.52"><g><svg></svg></g><g><svg viewBox="0 0 395.52 247.2" height="247.2" width="395.52"><g transform="matrix(1,0,0,1,75.54432,108.14781970371294)"><svg viewBox="0 0 244.43135999999998 30.9043605925741" height="30.9043605925741" width="244.43135999999998"><g><svg viewBox="0 0 244.43135999999998 30.9043605925741" height="30.9043605925741" width="244.43135999999998"><g><svg viewBox="0 0 244.43135999999998 30.9043605925741" height="30.9043605925741" width="244.43135999999998"><g><svg viewBox="0 0 244.43135999999998 30.9043605925741" height="30.9043605925741" width="244.43135999999998"><g><svg viewBox="0 0 244.43135999999998 30.9043605925741" height="30.9043605925741" width="244.43135999999998"><g transform="matrix(1,0,0,1,0,0)"><svg width="244.43135999999998" viewBox="1.3700006008148193 -36.060001373291016 312.9899597167969 36.570003509521484" height="30.9043605925741" data-palette-color="#6b7280"><svg></svg><g class="undefined-text-0" data-fill-palette-color="primary" id="text-0"><path d="M18.85 0h-17.48v-4.27l3.78-0.73v-25.52l-3.78-0.73v-4.3h3.78 12.01c4.187 0 7.45 0.813 9.79 2.44 2.347 1.633 3.52 4.067 3.52 7.3v0c0 1.647-0.437 3.117-1.31 4.41-0.867 1.293-2.13 2.267-3.79 2.92v0c1.413 0.307 2.597 0.85 3.55 1.63 0.953 0.787 1.663 1.737 2.13 2.85 0.473 1.113 0.71 2.33 0.71 3.65v0c0 3.4-1.123 5.977-3.37 7.73-2.247 1.747-5.427 2.62-9.54 2.62zM12.28-15.72v10.25h6.57c1.887 0 3.327-0.41 4.32-1.23 0.993-0.82 1.49-2.037 1.49-3.65v0c0-1.173-0.187-2.16-0.56-2.96-0.373-0.793-0.947-1.393-1.72-1.8-0.773-0.407-1.773-0.61-3-0.61v0zM12.28-30.05v9.4h5.13c1.9 0 3.363-0.393 4.39-1.18 1.027-0.78 1.54-1.917 1.54-3.41v0c0-1.647-0.517-2.86-1.55-3.64-1.033-0.78-2.577-1.17-4.63-1.17v0zM50.46 0.51v0c-2.387 0-4.567-0.447-6.54-1.34-1.967-0.893-3.663-2.15-5.09-3.77-1.427-1.62-2.52-3.523-3.28-5.71-0.767-2.193-1.15-4.59-1.15-7.19v0-0.54c0-2.587 0.383-4.977 1.15-7.17 0.76-2.187 1.85-4.093 3.27-5.72 1.413-1.627 3.107-2.89 5.08-3.79 1.967-0.893 4.147-1.34 6.54-1.34v0c2.407 0 4.603 0.447 6.59 1.34 1.987 0.9 3.697 2.163 5.13 3.79 1.433 1.627 2.537 3.533 3.31 5.72 0.773 2.193 1.16 4.583 1.16 7.17v0 0.54c0 2.6-0.387 4.997-1.16 7.19-0.773 2.187-1.877 4.09-3.31 5.71-1.433 1.62-3.14 2.877-5.12 3.77-1.973 0.893-4.167 1.34-6.58 1.34zM50.46-5.03v0c2.02 0 3.697-0.52 5.03-1.56 1.34-1.04 2.347-2.497 3.02-4.37 0.673-1.873 1.01-4.053 1.01-6.54v0-0.59c0-2.46-0.34-4.62-1.02-6.48-0.687-1.867-1.7-3.32-3.04-4.36-1.347-1.04-3.02-1.56-5.02-1.56v0c-1.987 0-3.64 0.517-4.96 1.55-1.313 1.033-2.3 2.477-2.96 4.33-0.66 1.853-0.99 4.027-0.99 6.52v0 0.59c0 2.487 0.33 4.667 0.99 6.54 0.66 1.873 1.653 3.33 2.98 4.37 1.327 1.04 2.98 1.56 4.96 1.56zM86.28 0.51v0c-2.393 0-4.573-0.447-6.54-1.34-1.973-0.893-3.67-2.15-5.09-3.77-1.427-1.62-2.523-3.523-3.29-5.71-0.767-2.193-1.15-4.59-1.15-7.19v0-0.54c0-2.587 0.383-4.977 1.15-7.17 0.767-2.187 1.857-4.093 3.27-5.72 1.42-1.627 3.113-2.89 5.08-3.79 1.973-0.893 4.153-1.34 6.54-1.34v0c2.413 0 4.613 0.447 6.6 1.34 1.987 0.9 3.693 2.163 5.12 3.79 1.433 1.627 2.537 3.533 3.31 5.72 0.773 2.193 1.16 4.583 1.16 7.17v0 0.54c0 2.6-0.387 4.997-1.16 7.19-0.773 2.187-1.877 4.09-3.31 5.71-1.427 1.62-3.13 2.877-5.11 3.77-1.98 0.893-4.173 1.34-6.58 1.34zM86.28-5.03v0c2.02 0 3.697-0.52 5.03-1.56 1.333-1.04 2.337-2.497 3.01-4.37 0.68-1.873 1.02-4.053 1.02-6.54v0-0.59c0-2.46-0.343-4.62-1.03-6.48-0.68-1.867-1.693-3.32-3.04-4.36-1.34-1.04-3.013-1.56-5.02-1.56v0c-1.98 0-3.63 0.517-4.95 1.55-1.32 1.033-2.31 2.477-2.97 4.33-0.66 1.853-0.99 4.027-0.99 6.52v0 0.59c0 2.487 0.33 4.667 0.99 6.54 0.66 1.873 1.653 3.33 2.98 4.37 1.327 1.04 2.983 1.56 4.97 1.56zM136.25-30.59l-21.53 21.87-3.68-4.22 17.4-17.94 0.05-0.08-3.51-0.29v-4.3h14.62v4.3zM119.82 0h-14.52v-4.27l3.78-0.73v-25.52l-3.78-0.73v-4.3h14.52v4.3l-3.61 0.73v25.52l3.61 0.73zM140.87 0h-15.11v-4.27l3.32-0.3h0.02l-9.03-12.45 4.71-4.71 12.6 16.85 3.49 0.61zM160.86 0h-6.49l-8.25-30.88-3.64-0.37v-4.3h14.31v4.3l-3.84 0.56 4.18 17.29 0.76 3.17h0.14l0.91-3.17 7.03-22.15h5.25l7.3 22.76 0.85 2.8h0.15l0.73-2.8 4.32-17.9-4.05-0.56v-4.3h14.04v4.3l-3.4 0.37-8.35 30.88h-6.44l-6.74-20.78-0.86-2.93h-0.14l-0.95 3.03zM213.06 0.51v0c-2.393 0-4.573-0.447-6.54-1.34-1.973-0.893-3.67-2.15-5.09-3.77-1.427-1.62-2.523-3.523-3.29-5.71-0.76-2.193-1.14-4.59-1.14-7.19v0-0.54c0-2.587 0.38-4.977 1.14-7.17 0.767-2.187 1.86-4.093 3.28-5.72 1.413-1.627 3.103-2.89 5.07-3.79 1.973-0.893 4.157-1.34 6.55-1.34v0c2.407 0 4.603 0.447 6.59 1.34 1.987 0.9 3.697 2.163 5.13 3.79 1.427 1.627 2.527 3.533 3.3 5.72 0.773 2.193 1.16 4.583 1.16 7.17v0 0.54c0 2.6-0.387 4.997-1.16 7.19-0.773 2.187-1.873 4.09-3.3 5.71-1.433 1.62-3.14 2.877-5.12 3.77-1.98 0.893-4.173 1.34-6.58 1.34zM213.06-5.03v0c2.02 0 3.697-0.52 5.03-1.56 1.333-1.04 2.34-2.497 3.02-4.37 0.673-1.873 1.01-4.053 1.01-6.54v0-0.59c0-2.46-0.343-4.62-1.03-6.48-0.68-1.867-1.693-3.32-3.04-4.36-1.34-1.04-3.01-1.56-5.01-1.56v0c-1.987 0-3.64 0.517-4.96 1.55-1.32 1.033-2.31 2.477-2.97 4.33-0.653 1.853-0.98 4.027-0.98 6.52v0 0.59c0 2.487 0.327 4.667 0.98 6.54 0.66 1.873 1.653 3.33 2.98 4.37 1.327 1.04 2.983 1.56 4.97 1.56zM246.8 0h-14.72v-4.27l3.78-0.73v-25.52l-3.78-0.73v-4.3h16.85c2.733 0 5.077 0.423 7.03 1.27 1.953 0.847 3.453 2.06 4.5 3.64 1.053 1.58 1.58 3.477 1.58 5.69v0c0 2.08-0.523 3.943-1.57 5.59-1.04 1.647-2.487 2.94-4.34 3.88-1.86 0.947-4 1.427-6.42 1.44v0h-6.72v9.04l3.81 0.73zM263.6 0h-8.64l-5.99-15.36 6.43-1.58 5.17 11.96 3.03 0.71zM242.99-30.05v10.52h5.81c2.053 0 3.59-0.437 4.61-1.31 1.013-0.867 1.52-2.13 1.52-3.79v0c0-1.647-0.503-2.963-1.51-3.95-1.013-0.98-2.51-1.47-4.49-1.47v0zM281.18 0h-14.72v-4.27l3.78-0.73v-25.52l-3.78-0.73v-4.3h3.78 10.55l9.69 24.78h0.15l9.37-24.78h14.36v4.3l-3.81 0.73v25.52l3.81 0.73v4.27h-14.73v-4.27l3.98-0.73v-6.82l0.13-16.04-0.15-0.02-10.62 27.39h-5.4l-10.86-27.17-0.15 0.02 0.42 15.09v7.55l4.2 0.73z" data-fill-palette-color="primary" fill="#6b7280" opacity="1"></path></g></svg></g></svg></g></svg></g></svg></g></svg></g></svg></g><path d="M176.694 102.148L176.694 37.755 5.004 37.755 5.004 209.445 176.694 209.445 176.694 145.052 174.118 145.052 174.118 206.869 7.579 206.869 7.579 40.331 174.118 40.331 174.118 102.148Z" fill="#6b7280" stroke="transparent" data-fill-palette-color="primary"></path></svg></g></svg><rect width="395.52" height="247.2" fill="none" stroke="none" visibility="hidden"></rect></g></svg></g></svg>